<svg width="385" height="385" viewBox="0 0 385 385" fill="none" xmlns="http://www.w3.org/2000/svg">
<g clip-path="url(#clip0_5320_2)">
<path d="M12.03 120.302H372.939C379.58 120.302 384.969 114.912 384.969 108.272C384.969 101.631 379.579 96.2422 372.939 96.2422H12.03C5.389 96.2422 0 101.632 0 108.272C0 114.912 5.39 120.302 12.03 120.302Z" fill="white"/>
<path d="M372.939 180.455H12.03C5.389 180.455 0 185.845 0 192.485C0 199.125 5.39 204.515 12.03 204.515H372.939C379.58 204.515 384.969 199.125 384.969 192.485C384.969 185.845 379.58 180.455 372.939 180.455Z" fill="white"/>
<path d="M372.941 264.666H132.335C125.694 264.666 120.305 270.056 120.305 276.696C120.305 283.337 125.695 288.726 132.335 288.726H372.941C379.582 288.726 384.971 283.336 384.971 276.696C384.972 270.055 379.582 264.666 372.941 264.666Z" fill="white"/>
</g>
<defs>
<clipPath id="clip0_5320_2">
<rect width="384.97" height="384.97" fill="white"/>
</clipPath>
</defs>
</svg>
